<?xml version="1.0" encoding="UTF-8"?>
<svg width="158px" height="158px" viewBox="0 0 158 158" version="1.1" xmlns="http://www.w3.org/2000/svg" xmlns:xlink="http://www.w3.org/1999/xlink">
    <!-- Generator: Sketch 40 (33762) - http://www.bohemiancoding.com/sketch -->
    <title>Nagios</title>
    <desc>Created with Sketch.</desc>
    <defs></defs>
    <g id="Juju-Icons" stroke="none" stroke-width="1" fill="none" fill-rule="evenodd">
        <g id="Nagios">
            <g id="Base" fill="#E7E9ED">
                <rect id="Rectangle" x="0" y="0" width="158" height="158"></rect>
            </g>
            <g id="Group-2" transform="translate(44.000000, 34.000000)">
                <g id="Group" transform="translate(0.000000, 0.500000)">
                    <path d="M48.116706,30.5242455 C48.219706,23.4322455 48.158706,16.3382455 48.236706,9.24624547 C48.253706,7.66824547 48.302706,5.97324547 48.880706,4.55324547 C49.390706,3.29824547 50.621706,1.46524547 51.597706,1.42524547 C55.345706,1.27024547 59.209706,1.33524547 62.842706,2.15424547 C64.374706,2.50024547 65.908706,4.73424547 66.595706,6.44924547 C67.477706,8.65024547 67.849706,11.1942455 67.844706,13.5892455 C67.818706,25.4562455 67.531706,37.3222455 67.485706,49.1892455 C67.474706,52.1382455 67.908706,55.1062455 68.328706,58.0372455 C69.226706,64.2952455 66.585706,69.6852455 61.533706,69.6562455 C54.162706,69.6142455 46.728706,68.9362455 42.013706,61.5592455 C37.466706,54.4432455 32.410706,47.6532455 27.621706,40.6902455 C26.846706,39.5642455 26.455706,38.1532455 25.599706,37.1102455 C24.874706,36.2262455 23.732706,35.6852455 22.774706,34.9922455 C22.133706,35.9772455 21.005706,36.9292455 20.934706,37.9542455 C20.583706,43.0302455 20.567706,48.1292455 20.312706,53.2142455 C20.218706,55.0882455 19.694706,56.9382455 19.545706,58.8132455 C19.408706,60.5392455 19.190706,62.3612455 19.581706,64.0052455 C20.194706,66.5802455 19.477706,68.5362455 17.013706,68.8562455 C13.615706,69.2972455 10.033706,69.4932455 6.69570601,68.8882455 C3.34570601,68.2812455 1.30570601,65.8242455 1.38670601,61.9952455 C1.44870601,59.0322455 1.19870601,56.0602455 1.02470601,53.0952455 C0.829706015,49.7712455 1.78970601,46.9352455 3.88070601,44.2782455 C6.84470601,40.5112455 6.79070601,39.4302455 4.17970601,35.5172455 C1.58870601,31.6342455 0.964706015,27.2772455 1.01070601,22.7792455 C1.06470601,17.5912455 1.26070601,12.4052455 1.41270601,7.21824547 C1.54670601,2.64824547 2.36270601,1.98824547 6.81870601,1.72624547 C9.31970601,1.57924547 11.819706,1.00624547 14.264706,0.404245467 C18.160706,-0.554754533 20.253706,0.0742454668 21.834706,3.57524547 C23.356706,6.94524547 25.161706,9.73224547 28.608706,11.5802455 C30.323706,12.4992455 31.428706,14.6842455 32.620706,16.4262455 C35.970706,21.3192455 39.164706,26.3182455 42.547706,31.1882455 C43.576706,32.6702455 45.016706,33.8672455 46.268706,35.1952455 C46.615706,35.0982455 46.960706,35.0022455 47.305706,34.9052455 C47.588706,33.4452455 48.095706,31.9882455 48.116706,30.5242455 Z" id="Shape" fill="#263156"></path>
                    <path d="M23.176273,88.0678705 C16.932273,88.0678705 10.682273,88.2168705 4.44927295,87.9578705 C2.98027295,87.8968705 0.815272954,86.7898705 0.294272954,85.5898705 C-0.657727046,83.3958705 0.822272954,81.3188705 2.98027295,80.5578705 C5.30927295,79.7368705 7.85227295,79.1898705 10.314273,79.1428705 C19.409273,78.9698705 28.510273,78.9638705 37.606273,79.0718705 C43.491273,79.1418705 49.372273,79.5058705 55.254273,79.7658705 C58.426273,79.9058705 61.598273,80.0538705 64.763273,80.2948705 C67.194273,80.4798705 69.529273,81.0028705 69.652273,84.1128705 C69.741273,86.3608705 67.201273,88.6178705 64.391273,88.5568705 C58.780273,88.4358705 53.173273,87.8798705 47.567273,87.9128705 C40.919273,87.9518705 34.274273,88.4338705 27.627273,88.6978705 C26.146273,88.7568705 24.660273,88.7068705 23.177273,88.7068705 C23.176273,88.4948705 23.176273,88.2818705 23.176273,88.0678705 L23.176273,88.0678705 Z" id="Shape" fill="#18A1FF"></path>
                </g>
            </g>
        </g>
    </g>
</svg>